<svg width="178" height="52" viewBox="0 0 178 52" fill="none" xmlns="http://www.w3.org/2000/svg">
<g clip-path="url(#clip0_4_2)" filter="url(#filter0_d_4_2)">
<path d="M178 24.2928V21.3382H174.113V16.7451L173.982 16.7831L170.331 17.8375L170.259 17.8581V21.3384H164.496V19.3996C164.496 18.4968 164.709 17.806 165.131 17.3452C165.55 16.89 166.148 16.6586 166.912 16.6586C167.461 16.6586 168.029 16.7806 168.601 17.0213L168.745 17.0818V13.9703L168.677 13.9469C168.144 13.7658 167.418 13.6746 166.518 13.6746C165.384 13.6746 164.354 13.9075 163.456 14.3691C162.557 14.8313 161.849 15.4911 161.354 16.33C160.86 17.1679 160.61 18.1357 160.61 19.2067V21.3382H157.903V24.2928H160.61V36.7397H164.496V24.2928H170.259V32.2026C170.259 35.4602 171.887 37.111 175.097 37.111C175.625 37.111 176.18 37.0527 176.747 36.9384C177.324 36.8211 177.718 36.7039 177.949 36.5788L178 36.5502V33.5684L177.842 33.667C177.631 33.7996 177.369 33.908 177.061 33.9886C176.751 34.0707 176.493 34.1118 176.293 34.1118C175.541 34.1118 174.984 33.9205 174.639 33.543C174.29 33.1621 174.113 32.4959 174.113 31.5641V24.2928H178ZM149.225 34.1123C147.815 34.1123 146.703 33.6709 145.919 32.8014C145.131 31.9276 144.731 30.6818 144.731 29.0989C144.731 27.4657 145.131 26.1875 145.92 25.2983C146.704 24.4148 147.805 23.9664 149.194 23.9664C150.541 23.9664 151.614 24.3947 152.382 25.2399C153.154 26.0895 153.546 27.3575 153.546 29.0096C153.546 30.6821 153.177 31.9668 152.451 32.8261C151.729 33.679 150.644 34.1123 149.225 34.1123V34.1123ZM149.398 20.9672C146.707 20.9672 144.57 21.7114 143.046 23.1791C141.523 24.6469 140.751 26.6782 140.751 29.217C140.751 31.6284 141.505 33.568 142.992 34.9811C144.478 36.3947 146.501 37.1107 149.005 37.1107C151.613 37.1107 153.708 36.3562 155.231 34.8682C156.754 33.3818 157.525 31.3697 157.525 28.8902C157.525 26.4411 156.801 24.487 155.373 23.0833C153.943 21.679 151.933 20.9672 149.398 20.9672V20.9672ZM134.486 20.9672C132.656 20.9672 131.142 21.4091 129.985 22.2803C128.821 23.1568 128.231 24.3063 128.231 25.6972C128.231 26.4203 128.359 27.0625 128.609 27.6073C128.861 28.1538 129.252 28.635 129.77 29.0389C130.285 29.4395 131.08 29.8591 132.132 30.286C133.017 30.6298 133.677 30.9205 134.097 31.1496C134.507 31.3742 134.797 31.6 134.962 31.8199C135.121 32.035 135.202 32.3295 135.202 32.6929C135.202 33.7276 134.381 34.2311 132.692 34.2311C132.065 34.2311 131.35 34.1076 130.568 33.8641C129.79 33.6244 129.056 33.2732 128.392 32.8231L128.231 32.7139V36.2448L128.29 36.2708C128.84 36.5104 129.533 36.7124 130.35 36.8713C131.166 37.0304 131.906 37.1114 132.55 37.1114C134.536 37.1114 136.136 36.6674 137.303 35.7909C138.477 34.9085 139.073 33.7318 139.073 32.2928C139.073 31.2546 138.752 30.3644 138.121 29.6464C137.493 28.9342 136.405 28.2804 134.886 27.7025C133.676 27.2442 132.901 26.8638 132.581 26.5717C132.273 26.2896 132.117 25.8906 132.117 25.3854C132.117 24.9375 132.31 24.5786 132.706 24.2881C133.106 23.996 133.662 23.8475 134.36 23.8475C135.008 23.8475 135.67 23.944 136.329 24.1332C136.987 24.3224 137.565 24.5757 138.048 24.8856L138.207 24.988V21.6386L138.146 21.6139C137.7 21.4336 137.113 21.2794 136.4 21.1543C135.69 21.0299 135.046 20.9672 134.486 20.9672V20.9672ZM118.101 34.1123C116.691 34.1123 115.579 33.6709 114.795 32.8014C114.007 31.9276 113.608 30.6821 113.608 29.0989C113.608 27.4657 114.007 26.1875 114.796 25.2983C115.579 24.4148 116.681 23.9664 118.07 23.9664C119.417 23.9664 120.489 24.3947 121.258 25.2399C122.03 26.0895 122.422 27.3575 122.422 29.0096C122.422 30.6821 122.053 31.9668 121.326 32.8261C120.605 33.679 119.52 34.1123 118.101 34.1123V34.1123ZM118.274 20.9672C115.583 20.9672 113.445 21.7114 111.922 23.1791C110.4 24.6469 109.627 26.6782 109.627 29.217C109.627 31.6294 110.381 33.568 111.868 34.9811C113.354 36.3947 115.378 37.1107 117.881 37.1107C120.489 37.1107 122.584 36.3562 124.107 34.8682C125.63 33.3818 126.402 31.3697 126.402 28.8902C126.402 26.4411 125.677 24.487 124.248 23.0833C122.819 21.679 120.809 20.9672 118.274 20.9672V20.9672ZM103.728 24.0054V21.3382H99.8899V36.7394H103.728V28.8611C103.728 27.5215 104.05 26.4209 104.685 25.5896C105.312 24.7683 106.148 24.3521 107.168 24.3521C107.513 24.3521 107.902 24.4059 108.322 24.5123C108.738 24.6181 109.039 24.733 109.217 24.8539L109.378 24.9643V21.3119L109.316 21.2867C108.959 21.1434 108.453 21.0711 107.813 21.0711C106.848 21.0711 105.985 21.3636 105.246 21.9395C104.597 22.4458 104.128 23.1399 103.769 24.0054H103.728ZM93.016 20.9672C91.255 20.9672 89.6843 21.3236 88.3483 22.0262C87.0095 22.7303 85.9741 23.7357 85.2697 25.014C84.5684 26.2893 84.2123 27.7789 84.2123 29.4401C84.2123 30.8953 84.5575 32.2307 85.2399 33.4076C85.9226 34.5865 86.889 35.5088 88.1122 36.1485C89.3337 36.7873 90.7455 37.1112 92.3086 37.1112C94.1328 37.1112 95.6902 36.767 96.939 36.0882L96.9894 36.0609V32.7418L96.8281 32.853C96.2624 33.2419 95.6303 33.5523 94.9502 33.7759C94.2717 33.9994 93.6532 34.1123 93.1108 34.1123C91.6047 34.1123 90.3956 33.6675 89.5179 32.7906C88.6384 31.9125 88.1924 30.6795 88.1924 29.1279C88.1924 27.5667 88.6575 26.302 89.5741 25.3688C90.4879 24.4384 91.6992 23.9664 93.1742 23.9664C94.4358 23.9664 95.6653 24.3696 96.8284 25.166L96.9894 25.2763V21.7791L96.9374 21.7515C96.4997 21.5203 95.9027 21.3293 95.1616 21.1845C94.4236 21.04 93.7018 20.9672 93.016 20.9672V20.9672ZM81.5687 21.3384H77.7302V36.7394H81.5687V21.3384V21.3384ZM79.6887 14.7775C79.0569 14.7775 78.5059 14.9805 78.0532 15.3827C77.5987 15.786 77.3681 16.2939 77.3681 16.8933C77.3681 17.4832 77.5959 17.9818 78.0462 18.3744C78.4935 18.7659 79.0463 18.9644 79.6889 18.9644C80.3313 18.9644 80.8861 18.7659 81.3388 18.3751C81.7944 17.9818 82.0255 17.4834 82.0255 16.8933C82.0255 16.3149 81.8006 15.8122 81.3576 15.3989C80.9149 14.9865 80.3532 14.7775 79.6887 14.7775ZM70.1115 20.2021V36.7394H74.0288V15.2489H68.6071L61.7157 31.2114L55.0281 15.2489H49.3856V36.7392H53.0668V20.2005H53.1932L60.2552 36.7394H63.0333L69.9851 20.2021H70.1115V20.2021Z" fill="#706D6E"/>
<path d="M18.0571 25.1102H0V8.06753H18.0571V25.1102Z" fill="#F1511B"/>
<path d="M37.9943 25.1102H19.9375V8.06753H37.9943V25.1102Z" fill="#80CC28"/>
<path d="M18.0566 43.9339H0V26.8914H18.0566V43.9339Z" fill="#00ADEF"/>
<path d="M37.9943 43.9339H19.9375V26.8914H37.9943V43.9339Z" fill="#FBBC09"/>
</g>
<defs>
<filter id="filter0_d_4_2" x="-4" y="-58" width="186" height="176" filterUnits="userSpaceOnUse" color-interpolation-filters="sRGB">
<feFlood flood-opacity="0" result="BackgroundImageFix"/>
<feColorMatrix in="SourceAlpha" type="matrix" values="0 0 0 0 0 0 0 0 0 0 0 0 0 0 0 0 0 0 127 0" result="hardAlpha"/>
<feOffset dy="4"/>
<feGaussianBlur stdDeviation="2"/>
<feComposite in2="hardAlpha" operator="out"/>
<feColorMatrix type="matrix" values="0 0 0 0 0 0 0 0 0 0 0 0 0 0 0 0 0 0 0.25 0"/>
<feBlend mode="normal" in2="BackgroundImageFix" result="effect1_dropShadow_4_2"/>
<feBlend mode="normal" in="SourceGraphic" in2="effect1_dropShadow_4_2" result="shape"/>
</filter>
<clipPath id="clip0_4_2">
<rect width="178" height="168" fill="white" transform="translate(0 -58)"/>
</clipPath>
</defs>
</svg>
